<svg width="24" height="24" viewBox="0 0 24 24" fill="none" xmlns="http://www.w3.org/2000/svg">
<path fill-rule="evenodd" clip-rule="evenodd" d="M11.8842 2.25002C11.0662 2.24975 10.508 2.24957 10.0294 2.37783C8.73529 2.72458 7.72449 3.73538 7.37774 5.02948C7.2856 5.37334 7.25975 5.75823 7.25259 6.25099C6.44137 6.25656 5.83687 6.29068 5.30702 6.48985C4.45642 6.80959 3.75085 7.42733 3.3215 8.22821C2.99831 8.83105 2.89962 9.57379 2.75587 10.6556L1.93207 16.8345C1.83121 17.5909 1.75021 18.1983 1.71998 18.693C1.68903 19.1994 1.70588 19.6512 1.83664 20.0842C2.14915 21.119 2.89301 21.9686 3.87745 22.4151C4.28933 22.602 4.73491 22.6784 5.24096 22.7146C5.73532 22.7501 6.34812 22.75 7.11119 22.75H16.8887C17.6517 22.75 18.2646 22.7501 18.759 22.7146C19.265 22.6784 19.7106 22.602 20.1225 22.4151C21.1069 21.9686 21.8508 21.119 22.1633 20.0842C22.294 19.6512 22.3109 19.1994 22.2799 18.693C22.2497 18.1983 22.1687 17.5909 22.0679 16.8345L21.2441 10.6556C21.1003 9.5738 21.0016 8.83106 20.6784 8.22821C20.2491 7.42733 19.5435 6.80959 18.6929 6.48985C18.163 6.29068 17.5585 6.25656 16.7473 6.25099C16.7402 5.75823 16.7143 5.37334 16.6222 5.02948C16.2754 3.73538 15.2646 2.72458 13.9705 2.37783C13.4919 2.24957 12.9337 2.24975 12.1158 2.25002H11.8842ZM15.25 7.75004V10C15.25 10.4143 15.5857 10.75 16 10.75C16.4142 10.75 16.75 10.4143 16.75 10V7.75237C17.541 7.7597 17.8846 7.7885 18.1651 7.89393C18.6755 8.08577 19.0988 8.45641 19.3564 8.93694C19.5337 9.26759 19.605 9.71232 19.7772 11.0044L20.5772 17.0044C20.6827 17.7956 20.7562 18.3498 20.7827 18.7845C20.809 19.2137 20.7841 19.4626 20.7273 19.6505C20.5398 20.2714 20.0935 20.7812 19.5028 21.0491C19.3241 21.1302 19.0807 21.1877 18.6518 21.2185C18.2173 21.2496 17.6583 21.25 16.8601 21.25H7.13978C6.34158 21.25 5.78258 21.2496 5.34815 21.2185C4.91924 21.1877 4.67585 21.1302 4.49707 21.0491C3.90641 20.7812 3.46009 20.2714 3.27259 19.6505C3.21583 19.4626 3.19096 19.2137 3.21719 18.7845C3.24375 18.3498 3.31719 17.7956 3.42268 17.0044L4.22268 11.0044C4.39496 9.71232 4.46624 9.26759 4.6435 8.93694C4.90112 8.45641 5.32445 8.08577 5.83482 7.89393C6.11527 7.7885 6.45893 7.7597 7.24996 7.75237V10C7.24996 10.4143 7.58574 10.75 7.99996 10.75C8.41417 10.75 8.74996 10.4143 8.74996 10V7.75004H15.25ZM15.2463 6.25004C15.2396 5.81507 15.2215 5.59757 15.1733 5.41771C14.9652 4.64125 14.3588 4.03477 13.5823 3.82672C13.3202 3.75649 12.9782 3.75005 12 3.75005C11.0217 3.75005 10.6797 3.75649 10.4176 3.82672C9.64116 4.03477 9.03468 4.64125 8.82662 5.41771C8.77843 5.59757 8.76028 5.81507 8.75363 6.25004H15.2463Z" fill="#171717"/>
</svg>
