<svg width="24" height="24" viewBox="0 0 24 24" fill="none" xmlns="http://www.w3.org/2000/svg">
<path fill-rule="evenodd" clip-rule="evenodd" d="M8 3.75C5.1102 3.75 2.75 6.12796 2.75 9.08312C2.75 12.1141 4.33128 16.8974 10.741 19.9033C11.1494 20.0948 11.28 20.1533 11.5106 20.2047C11.7588 20.26 12.2412 20.26 12.4894 20.2047C12.72 20.1533 12.8506 20.0948 13.259 19.9033C19.6687 16.8974 21.25 12.1141 21.25 9.08312C21.25 6.12796 18.8898 3.75 16 3.75C14.658 3.75 13.4338 4.2606 12.504 5.10437C12.2181 5.36381 11.7819 5.36381 11.496 5.10437C10.5662 4.2606 9.342 3.75 8 3.75ZM1.25 9.08312C1.25 5.31906 4.26238 2.25 8 2.25C9.49758 2.25 10.8814 2.74438 12 3.57853C13.1186 2.74438 14.5024 2.25 16 2.25C19.7376 2.25 22.75 5.31906 22.75 9.08312C22.75 12.6575 20.8662 17.9926 13.8959 21.2614L13.8657 21.2755C13.4867 21.4533 13.219 21.5789 12.8156 21.6688C12.3526 21.772 11.6474 21.772 11.1844 21.6688C10.781 21.5789 10.5133 21.4533 10.1343 21.2755L10.1041 21.2614C3.13376 17.9926 1.25 12.6575 1.25 9.08312Z" fill="#171717"/>
</svg>
