<svg width="32" height="32" viewBox="0 0 32 32" fill="none" xmlns="http://www.w3.org/2000/svg">
<rect width="32" height="32" rx="16" fill="#747474"/>
<path d="M20.0889 10.5067C20.0889 10.5067 20.5422 10.9511 20.0889 10.5067C19.4813 9.813 19.1464 8.92216 19.1467 8H16.4V19.0222C16.3788 19.6187 16.127 20.1837 15.6976 20.5982C15.2682 21.0127 14.6946 21.2444 14.0978 21.2444C12.8356 21.2444 11.7867 20.2133 11.7867 18.9333C11.7867 17.4044 13.2622 16.2578 14.7822 16.7289V13.92C11.7156 13.5111 9.03113 15.8933 9.03113 18.9333C9.03113 21.8933 11.4845 24 14.0889 24C16.88 24 19.1467 21.7333 19.1467 18.9333V13.3422C20.2605 14.1421 21.5977 14.5712 22.9689 14.5689V11.8222C22.9689 11.8222 21.2978 11.9022 20.0889 10.5067Z" fill="white"/>
</svg>
