<svg width="32" height="32" viewBox="0 0 32 32" fill="none" xmlns="http://www.w3.org/2000/svg">
<rect width="32" height="32" rx="16" fill="#747474"/>
<path d="M24.2102 11.8735C24.1126 11.511 23.9216 11.1806 23.6562 10.9152C23.3908 10.6498 23.0604 10.4588 22.698 10.3612C21.3633 10 16 10 16 10C16 10 10.6367 10 9.30203 10.3612C8.93961 10.4588 8.60916 10.6498 8.34377 10.9152C8.07837 11.1806 7.88734 11.511 7.78979 11.8735C7.54057 13.2347 7.41963 14.6162 7.42856 16C7.41963 17.3838 7.54057 18.7653 7.78979 20.1265C7.88734 20.489 8.07837 20.8194 8.34377 21.0848C8.60916 21.3502 8.93961 21.5412 9.30203 21.6388C10.6367 22 16 22 16 22C16 22 21.3633 22 22.698 21.6388C23.0604 21.5412 23.3908 21.3502 23.6562 21.0848C23.9216 20.8194 24.1126 20.489 24.2102 20.1265C24.4594 18.7653 24.5804 17.3838 24.5714 16C24.5804 14.6162 24.4594 13.2347 24.2102 11.8735ZM14.2857 18.5714V13.4286L18.7367 16L14.2857 18.5714Z" fill="white"/>
</svg>
