<svg width="72" height="28" viewBox="0 0 72 28" fill="none" xmlns="http://www.w3.org/2000/svg">
<path d="M0.399994 28L0.399993 8C0.399993 3.58172 3.98171 3.65814e-06 8.39999 3.46501e-06L71.4 7.11189e-07C68.9 4 64.4109 12.5 64.4109 14C64.4109 15.5 67.9 22.5 71.4 28L0.399994 28Z" fill="#EB632B"/>
<path d="M9.86431 19L9.86431 10.74L6.61631 10.74L6.61631 9.2L14.9323 9.2L14.9323 10.74L11.6843 10.74L11.6843 19L9.86431 19ZM20.3537 19L20.3537 17.488L20.2557 17.166L20.2557 14.52C20.2557 14.0067 20.1017 13.61 19.7937 13.33C19.4857 13.0407 19.019 12.896 18.3937 12.896C17.9737 12.896 17.5584 12.9613 17.1477 13.092C16.7464 13.2227 16.4057 13.4047 16.1257 13.638L15.4397 12.364C15.841 12.056 16.317 11.8273 16.8677 11.678C17.4277 11.5193 18.0064 11.44 18.6037 11.44C19.6864 11.44 20.5217 11.7013 21.1097 12.224C21.707 12.7373 22.0057 13.5353 22.0057 14.618L22.0057 19L20.3537 19ZM18.0017 19.098C17.4417 19.098 16.9517 19.0047 16.5317 18.818C16.1117 18.622 15.785 18.356 15.5517 18.02C15.3277 17.6747 15.2157 17.2873 15.2157 16.858C15.2157 16.438 15.3137 16.06 15.5097 15.724C15.715 15.388 16.0464 15.122 16.5037 14.926C16.961 14.73 17.5677 14.632 18.3237 14.632L20.4937 14.632L20.4937 15.794L18.4497 15.794C17.8524 15.794 17.451 15.892 17.2457 16.088C17.0404 16.2747 16.9377 16.508 16.9377 16.788C16.9377 17.1053 17.0637 17.3573 17.3157 17.544C17.5677 17.7307 17.9177 17.824 18.3657 17.824C18.795 17.824 19.1777 17.726 19.5137 17.53C19.859 17.334 20.1064 17.0447 20.2557 16.662L20.5497 17.712C20.3817 18.1507 20.0784 18.4913 19.6397 18.734C19.2104 18.9767 18.6644 19.098 18.0017 19.098ZM27.6393 19.098C26.8739 19.098 26.1926 18.9347 25.5953 18.608C24.9979 18.272 24.5266 17.8147 24.1813 17.236C23.8359 16.6573 23.6633 15.9993 23.6633 15.262C23.6633 14.5153 23.8359 13.8573 24.1813 13.288C24.5266 12.7093 24.9979 12.2567 25.5953 11.93C26.1926 11.6033 26.8739 11.44 27.6393 11.44C28.4139 11.44 29.0999 11.6033 29.6973 11.93C30.3039 12.2567 30.7753 12.7047 31.1113 13.274C31.4566 13.8433 31.6293 14.506 31.6293 15.262C31.6293 15.9993 31.4566 16.6573 31.1113 17.236C30.7753 17.8147 30.3039 18.272 29.6973 18.608C29.0999 18.9347 28.4139 19.098 27.6393 19.098ZM27.6393 17.6C28.0686 17.6 28.4513 17.5067 28.7873 17.32C29.1233 17.1333 29.3846 16.8627 29.5713 16.508C29.7673 16.1533 29.8653 15.738 29.8653 15.262C29.8653 14.7767 29.7673 14.3613 29.5713 14.016C29.3846 13.6613 29.1233 13.3907 28.7873 13.204C28.4513 13.0173 28.0733 12.924 27.6533 12.924C27.2239 12.924 26.8413 13.0173 26.5053 13.204C26.1786 13.3907 25.9173 13.6613 25.7213 14.016C25.5253 14.3613 25.4273 14.7767 25.4273 15.262C25.4273 15.738 25.5253 16.1533 25.7213 16.508C25.9173 16.8627 26.1786 17.1333 26.5053 17.32C26.8413 17.5067 27.2193 17.6 27.6393 17.6ZM37.4607 19.098C36.826 19.098 36.2614 18.958 35.7667 18.678C35.272 18.398 34.88 17.978 34.5907 17.418C34.3107 16.8487 34.1707 16.13 34.1707 15.262C34.1707 14.3847 34.3154 13.666 34.6047 13.106C34.9034 12.546 35.3 12.1307 35.7947 11.86C36.2987 11.58 36.854 11.44 37.4607 11.44C38.198 11.44 38.8467 11.5987 39.4067 11.916C39.976 12.2333 40.424 12.6767 40.7507 13.246C41.0867 13.8153 41.2547 14.4873 41.2547 15.262C41.2547 16.0367 41.0867 16.7087 40.7507 17.278C40.424 17.8473 39.976 18.2953 39.4067 18.622C38.8467 18.9393 38.198 19.098 37.4607 19.098ZM33.3167 19L33.3167 8.612L35.0667 8.612L35.0667 13.26L34.9267 15.248L34.9827 17.236L34.9827 19L33.3167 19ZM37.2647 17.6C37.6847 17.6 38.058 17.5067 38.3847 17.32C38.7207 17.1333 38.9867 16.8627 39.1827 16.508C39.3787 16.1533 39.4767 15.738 39.4767 15.262C39.4767 14.7767 39.3787 14.3613 39.1827 14.016C38.9867 13.6613 38.7207 13.3907 38.3847 13.204C38.058 13.0173 37.6847 12.924 37.2647 12.924C36.8447 12.924 36.4667 13.0173 36.1307 13.204C35.7947 13.3907 35.5287 13.6613 35.3327 14.016C35.1367 14.3613 35.0387 14.7767 35.0387 15.262C35.0387 15.738 35.1367 16.1533 35.3327 16.508C35.5287 16.8627 35.7947 17.1333 36.1307 17.32C36.4667 17.5067 36.8447 17.6 37.2647 17.6ZM47.4387 19L47.4387 17.488L47.3407 17.166L47.3407 14.52C47.3407 14.0067 47.1867 13.61 46.8787 13.33C46.5707 13.0407 46.104 12.896 45.4787 12.896C45.0587 12.896 44.6433 12.9613 44.2327 13.092C43.8313 13.2227 43.4907 13.4047 43.2107 13.638L42.5247 12.364C42.926 12.056 43.402 11.8273 43.9527 11.678C44.5127 11.5193 45.0913 11.44 45.6887 11.44C46.7713 11.44 47.6067 11.7013 48.1947 12.224C48.792 12.7373 49.0907 13.5353 49.0907 14.618L49.0907 19L47.4387 19ZM45.0867 19.098C44.5267 19.098 44.0367 19.0047 43.6167 18.818C43.1967 18.622 42.87 18.356 42.6367 18.02C42.4127 17.6747 42.3007 17.2873 42.3007 16.858C42.3007 16.438 42.3987 16.06 42.5947 15.724C42.8 15.388 43.1313 15.122 43.5887 14.926C44.046 14.73 44.6527 14.632 45.4087 14.632L47.5787 14.632L47.5787 15.794L45.5347 15.794C44.9373 15.794 44.536 15.892 44.3307 16.088C44.1253 16.2747 44.0227 16.508 44.0227 16.788C44.0227 17.1053 44.1487 17.3573 44.4007 17.544C44.6527 17.7307 45.0027 17.824 45.4507 17.824C45.88 17.824 46.2627 17.726 46.5987 17.53C46.944 17.334 47.1913 17.0447 47.3407 16.662L47.6347 17.712C47.4667 18.1507 47.1633 18.4913 46.7247 18.734C46.2953 18.9767 45.7493 19.098 45.0867 19.098ZM54.7242 19.098C53.9589 19.098 53.2776 18.9347 52.6802 18.608C52.0829 18.272 51.6116 17.8147 51.2662 17.236C50.9209 16.6573 50.7482 15.9993 50.7482 15.262C50.7482 14.5153 50.9209 13.8573 51.2662 13.288C51.6116 12.7093 52.0829 12.2567 52.6802 11.93C53.2776 11.6033 53.9589 11.44 54.7242 11.44C55.4989 11.44 56.1849 11.6033 56.7822 11.93C57.3889 12.2567 57.8602 12.7047 58.1962 13.274C58.5416 13.8433 58.7142 14.506 58.7142 15.262C58.7142 15.9993 58.5416 16.6573 58.1962 17.236C57.8602 17.8147 57.3889 18.272 56.7822 18.608C56.1849 18.9347 55.4989 19.098 54.7242 19.098ZM54.7242 17.6C55.1536 17.6 55.5362 17.5067 55.8722 17.32C56.2082 17.1333 56.4696 16.8627 56.6562 16.508C56.8522 16.1533 56.9502 15.738 56.9502 15.262C56.9502 14.7767 56.8522 14.3613 56.6562 14.016C56.4696 13.6613 56.2082 13.3907 55.8722 13.204C55.5362 13.0173 55.1582 12.924 54.7382 12.924C54.3089 12.924 53.9262 13.0173 53.5902 13.204C53.2636 13.3907 53.0022 13.6613 52.8062 14.016C52.6102 14.3613 52.5122 14.7767 52.5122 15.262C52.5122 15.738 52.6102 16.1533 52.8062 16.508C53.0022 16.8627 53.2636 17.1333 53.5902 17.32C53.9262 17.5067 54.3042 17.6 54.7242 17.6Z" fill="white"/>
</svg>
