<svg width="40" height="40" viewBox="0 0 40 40" fill="none" xmlns="http://www.w3.org/2000/svg">
<g clip-path="url(#clip0_150_241)">
<path d="M0.854297 19.7618C0.853359 23.1226 1.73836 26.4041 3.42117 29.2965L0.693359 39.179L10.8859 36.5272C13.705 38.05 16.8636 38.848 20.0734 38.8482H20.0818C30.6779 38.8482 39.3034 30.2926 39.3079 19.7768C39.3099 14.6812 37.3118 9.88955 33.6815 6.28458C30.0518 2.67993 25.2245 0.693732 20.081 0.691406C9.48367 0.691406 0.858828 9.24644 0.854453 19.7618" fill="url(#paint0_linear_150_241)"/>
<path d="M0.167188 19.7544C0.166094 23.2361 1.08281 26.635 2.82562 29.631L0 39.8678L10.558 37.1209C13.467 38.6947 16.7423 39.5245 20.0752 39.5257H20.0837C31.06 39.5257 39.9953 30.6625 40 19.7702C40.0019 14.4915 37.9319 9.5276 34.1719 5.79349C30.4114 2.05984 25.4114 0.00217054 20.0837 0C9.10562 0 0.171719 8.86202 0.167344 19.7544H0.167188ZM6.45469 29.115L6.06047 28.4941C4.40328 25.8795 3.52859 22.8581 3.52984 19.7557C3.53344 10.7022 10.9591 3.33643 20.09 3.33643C24.5119 3.33829 28.6675 5.04868 31.7931 8.15194C34.9186 11.2555 36.6384 15.3811 36.6373 19.769C36.6333 28.8225 29.2075 36.1892 20.0837 36.1892H20.0772C17.1064 36.1876 14.1928 35.396 11.6519 33.9L11.0472 33.5442L4.78188 35.1741L6.45469 29.1149V29.115Z" fill="url(#paint1_linear_150_241)"/>
<path d="M15.1061 11.4955C14.7332 10.6734 14.3409 10.6568 13.9864 10.6423C13.6961 10.6299 13.3642 10.6309 13.0326 10.6309C12.7007 10.6309 12.1615 10.7548 11.7057 11.2485C11.2495 11.7428 9.96387 12.9372 9.96387 15.3665C9.96387 17.796 11.7471 20.1437 11.9957 20.4735C12.2446 20.8027 15.4384 25.9475 20.4965 27.9267C24.7003 29.5715 25.5557 29.2444 26.4681 29.1619C27.3806 29.0797 29.4125 27.9678 29.827 26.8148C30.2418 25.6619 30.2418 24.6737 30.1175 24.4672C29.9931 24.2614 29.6612 24.1379 29.1636 23.891C28.6657 23.6441 26.2192 22.4495 25.7631 22.2847C25.3068 22.12 24.9751 22.0379 24.6432 22.5323C24.3114 23.0259 23.3584 24.1379 23.0679 24.4672C22.7778 24.7972 22.4873 24.8383 21.9898 24.5913C21.4918 24.3436 19.8892 23.8228 17.9878 22.1408C16.5084 20.832 15.5096 19.2157 15.2193 18.7213C14.929 18.2276 15.1882 17.96 15.4378 17.714C15.6614 17.4927 15.9356 17.1374 16.1846 16.8492C16.4328 16.5608 16.5156 16.3551 16.6815 16.0258C16.8476 15.6961 16.7645 15.4078 16.6403 15.1608C16.5156 14.9138 15.5486 12.472 15.1061 11.4957" fill="white"/>
</g>
<defs>
<linearGradient id="paint0_linear_150_241" x1="20.0006" y1="39.179" x2="20.0006" y2="0.691406" gradientUnits="userSpaceOnUse">
<stop stop-color="#1FAF38"/>
<stop offset="1" stop-color="#60D669"/>
</linearGradient>
<linearGradient id="paint1_linear_150_241" x1="20" y1="39.8678" x2="20" y2="0" gradientUnits="userSpaceOnUse">
<stop stop-color="#F9F9F9"/>
<stop offset="1" stop-color="white"/>
</linearGradient>
<clipPath id="clip0_150_241">
<rect width="40" height="40" fill="white"/>
</clipPath>
</defs>
</svg>
